<mxfile host="app.diagrams.net" modified="2023-07-05T17:01:34.916Z" agent="Mozilla/5.0 (Windows NT 10.0; Win64; x64) AppleWebKit/537.36 (KHTML, like Gecko) Chrome/114.0.0.0 Safari/537.36" etag="5ezvCwqPKaTkJcD8Dh5q" version="21.1.2" type="github">
  <diagram name="Page-1" id="F_ZnOLNht5xF3kkn8wZ8">
    <mxGraphModel dx="530" dy="298" grid="1" gridSize="10" guides="1" tooltips="1" connect="1" arrows="1" fold="1" page="1" pageScale="1" pageWidth="850" pageHeight="1100" math="0" shadow="0">
      <root>
        <mxCell id="0" />
        <mxCell id="1" parent="0" />
        <mxCell id="i2noK2FrERiB1dSlKvp0-1" value="Master Branch&lt;br&gt;(Deployment)" style="rounded=0;whiteSpace=wrap;html=1;" vertex="1" parent="1">
          <mxGeometry x="330" y="90" width="120" height="60" as="geometry" />
        </mxCell>
        <mxCell id="i2noK2FrERiB1dSlKvp0-3" style="edgeStyle=orthogonalEdgeStyle;rounded=0;orthogonalLoop=1;jettySize=auto;html=1;entryX=0.5;entryY=1;entryDx=0;entryDy=0;" edge="1" parent="1" source="i2noK2FrERiB1dSlKvp0-2" target="i2noK2FrERiB1dSlKvp0-1">
          <mxGeometry relative="1" as="geometry" />
        </mxCell>
        <mxCell id="i2noK2FrERiB1dSlKvp0-2" value="Main Branch&lt;br&gt;(Testing)" style="rounded=0;whiteSpace=wrap;html=1;" vertex="1" parent="1">
          <mxGeometry x="330" y="210" width="120" height="60" as="geometry" />
        </mxCell>
        <mxCell id="i2noK2FrERiB1dSlKvp0-5" style="edgeStyle=orthogonalEdgeStyle;rounded=0;orthogonalLoop=1;jettySize=auto;html=1;entryX=0.5;entryY=1;entryDx=0;entryDy=0;" edge="1" parent="1" source="i2noK2FrERiB1dSlKvp0-4" target="i2noK2FrERiB1dSlKvp0-6">
          <mxGeometry relative="1" as="geometry" />
        </mxCell>
        <mxCell id="i2noK2FrERiB1dSlKvp0-4" value="Other Branch" style="rounded=0;whiteSpace=wrap;html=1;" vertex="1" parent="1">
          <mxGeometry x="330" y="390" width="120" height="60" as="geometry" />
        </mxCell>
        <mxCell id="i2noK2FrERiB1dSlKvp0-7" style="edgeStyle=orthogonalEdgeStyle;rounded=0;orthogonalLoop=1;jettySize=auto;html=1;" edge="1" parent="1" source="i2noK2FrERiB1dSlKvp0-6" target="i2noK2FrERiB1dSlKvp0-4">
          <mxGeometry relative="1" as="geometry" />
        </mxCell>
        <mxCell id="i2noK2FrERiB1dSlKvp0-9" style="edgeStyle=orthogonalEdgeStyle;rounded=0;orthogonalLoop=1;jettySize=auto;html=1;entryX=0;entryY=0.5;entryDx=0;entryDy=0;exitX=0.5;exitY=0;exitDx=0;exitDy=0;" edge="1" parent="1" source="i2noK2FrERiB1dSlKvp0-6" target="i2noK2FrERiB1dSlKvp0-2">
          <mxGeometry relative="1" as="geometry">
            <mxPoint x="260" y="340" as="sourcePoint" />
          </mxGeometry>
        </mxCell>
        <mxCell id="i2noK2FrERiB1dSlKvp0-6" value="Pull Request" style="rounded=0;whiteSpace=wrap;html=1;" vertex="1" parent="1">
          <mxGeometry x="130" y="310" width="120" height="60" as="geometry" />
        </mxCell>
        <mxCell id="i2noK2FrERiB1dSlKvp0-8" value="No approved" style="text;html=1;strokeColor=none;fillColor=none;align=center;verticalAlign=middle;whiteSpace=wrap;rounded=0;" vertex="1" parent="1">
          <mxGeometry x="280" y="310" width="80" height="30" as="geometry" />
        </mxCell>
        <mxCell id="i2noK2FrERiB1dSlKvp0-10" value="Approved" style="text;html=1;strokeColor=none;fillColor=none;align=center;verticalAlign=middle;whiteSpace=wrap;rounded=0;" vertex="1" parent="1">
          <mxGeometry x="110" y="270" width="80" height="30" as="geometry" />
        </mxCell>
      </root>
    </mxGraphModel>
  </diagram>
</mxfile>
